<svg xmlns="http://www.w3.org/2000/svg" height="512pt" version="1.1" viewBox="-105 0 512 512.00002" width="512pt">
<g id="surface1">
<path d="M 150.601562 512 C 67.558594 512 0 444.441406 0 361.398438 L 0 150.601562 C 0 67.558594 67.558594 0 150.601562 0 C 233.644531 0 301.203125 67.558594 301.203125 150.601562 L 301.203125 361.398438 C 301.203125 444.441406 233.644531 512 150.601562 512 Z M 150.601562 512 " style=" stroke:none;fill-rule:nonzero;fill:#fff;fill-opacity:1;" />
<path d="M 150.601562 0 C 150.601562 0 150.601562 0 150.597656 0 L 150.597656 512 C 150.601562 512 150.601562 512 150.601562 512 C 233.644531 512 301.203125 444.441406 301.203125 361.398438 L 301.203125 150.601562 C 301.203125 67.558594 233.644531 0 150.601562 0 Z M 150.601562 0 " style=" stroke:none;fill-rule:nonzero;fill:#fff;fill-opacity:1;" />
<path d="M 150.605469 203.265625 C 142.121094 203.265625 135.246094 196.386719 135.246094 187.90625 L 135.246094 117.210938 C 135.246094 108.726562 142.121094 101.851562 150.605469 101.851562 C 159.085938 101.851562 165.964844 108.726562 165.964844 117.210938 L 165.964844 187.90625 C 165.964844 196.386719 159.089844 203.265625 150.605469 203.265625 Z M 150.605469 203.265625 " style=" stroke:none;fill-rule:nonzero;fill:#dd865f;fill-opacity:1;" />
<path d="M 150.605469 101.851562 C 150.601562 101.851562 150.601562 101.851562 150.597656 101.851562 L 150.597656 203.265625 C 150.601562 203.265625 150.601562 203.265625 150.605469 203.265625 C 159.085938 203.265625 165.964844 196.386719 165.964844 187.902344 L 165.964844 117.210938 C 165.964844 108.726562 159.089844 101.851562 150.605469 101.851562 Z M 150.605469 101.851562 " style=" stroke:none;fill-rule:nonzero;fill:#dd865f;fill-opacity:1;" />
</g>
</svg>